<?xml version="1.0" encoding="UTF-8"?>
<svg xmlns="http://www.w3.org/2000/svg" xmlns:xlink="http://www.w3.org/1999/xlink" viewBox="0 0 26 26" version="1.1" width="33" height="30" fill="#A9A9A9">
<g id="surface1">
<path style=" " d="M 13 0.15625 C 9.824219 0.15625 7.09375 2.296875 7.09375 6.40625 C 7.09375 9.089844 8.351563 11.816406 10 13.5 C 10.265625 14.199219 10.21875 14.722656 10.0625 15.09375 C 10.300781 15.417969 11.304688 16.4375 13 16.4375 C 14.628906 16.4375 15.617188 15.496094 15.90625 15.125 C 15.796875 14.761719 15.78125 14.257813 16.03125 13.5 C 17.667969 11.8125 18.90625 9.078125 18.90625 6.40625 C 18.90625 2.300781 16.175781 0.15625 13 0.15625 Z M 9 16 C 5.730469 17.21875 2.03125 19.359375 2.03125 21.46875 L 2.03125 22.28125 C 2.03125 25.226563 7.742188 25.875 13.03125 25.875 C 18.328125 25.875 23.96875 25.226563 23.96875 22.28125 L 23.96875 21.46875 C 23.96875 19.328125 20.34375 17.214844 16.96875 16.03125 C 16.96875 16.03125 15.96875 20.699219 14.65625 23.34375 C 14.191406 21.324219 13.34375 19.46875 13.34375 19.46875 C 13.34375 19.46875 14.4375 19.003906 14.4375 18.25 C 14.4375 17.320313 13 16.875 13 16.875 C 13 16.875 11.5625 17.1875 11.5625 18.25 C 11.5625 18.972656 12.65625 19.46875 12.65625 19.46875 C 12.65625 19.46875 11.808594 21.316406 11.34375 23.3125 C 10.023438 20.65625 9 16 9 16 Z "/>
</g>
</svg>
