<?xml version="1.0" encoding="UTF-8" standalone="no"?>
<svg
   xmlns:dc="http://purl.org/dc/elements/1.1/"
   xmlns:cc="http://creativecommons.org/ns#"
   xmlns:rdf="http://www.w3.org/1999/02/22-rdf-syntax-ns#"
   xmlns:svg="http://www.w3.org/2000/svg"
   xmlns="http://www.w3.org/2000/svg"
   xmlns:sodipodi="http://sodipodi.sourceforge.net/DTD/sodipodi-0.dtd"
   xmlns:inkscape="http://www.inkscape.org/namespaces/inkscape"
   viewBox="0 0 652 173"
   height="173.0pt"
   width="652.0pt"
   version="1.1"
   id="svg4160"
   sodipodi:docname="datadocs-logo.svg"
   inkscape:version="0.92.2 (unknown)">
  <metadata
     id="metadata4166">
    <rdf:RDF>
      <cc:Work
         rdf:about="">
        <dc:format>image/svg+xml</dc:format>
        <dc:type
           rdf:resource="http://purl.org/dc/dcmitype/StillImage" />
        <dc:title />
      </cc:Work>
    </rdf:RDF>
  </metadata>
  <defs
     id="defs4164" />
  <sodipodi:namedview
     pagecolor="#ffffff"
     bordercolor="#666666"
     borderopacity="1"
     objecttolerance="10"
     gridtolerance="10"
     guidetolerance="10"
     inkscape:pageopacity="0"
     inkscape:pageshadow="2"
     inkscape:window-width="1600"
     inkscape:window-height="1136"
     id="namedview4162"
     showgrid="false"
     inkscape:zoom="0.99702056"
     inkscape:cx="408.49118"
     inkscape:cy="-2.4488801"
     inkscape:window-x="0"
     inkscape:window-y="27"
     inkscape:window-maximized="1"
     inkscape:current-layer="svg4160" />
  <path
     d="M 56.64 5.17 C 62.92 4.68 69.47 5.61 75.75 6.21 C 98.20 8.93 120.59 14.81 141.46 23.54 C 156.81 30.04 172.15 38.26 184.81 49.20 C 190.95 54.57 197.00 61.24 200.20 68.82 C 202.55 74.39 202.99 80.64 200.12 86.11 C 196.82 92.48 190.31 96.36 183.85 98.94 C 172.19 103.44 159.39 104.54 147.00 104.44 C 131.34 104.47 115.46 102.12 100.23 98.57 C 82.50 94.41 64.96 88.47 48.65 80.35 C 37.68 74.95 26.87 68.39 17.59 60.38 C 12.06 55.44 7.05 50.40 3.68 43.69 C 6.39 44.31 8.42 44.43 9.95 47.02 C 16.08 56.02 24.21 62.78 33.20 68.79 C 46.66 77.75 61.26 84.29 76.49 89.61 C 95.35 96.12 115.10 100.34 135.00 101.72 C 147.21 102.34 159.29 102.21 171.24 99.41 C 177.85 97.82 184.71 95.35 189.99 90.95 C 193.90 87.68 196.71 83.21 197.03 78.03 C 197.54 70.99 194.08 64.47 189.89 59.07 C 183.69 51.29 175.75 44.95 167.41 39.59 C 152.01 29.63 134.50 22.35 117.00 16.98 C 101.10 12.20 84.60 8.85 68.00 7.82 C 63.79 7.41 60.11 8.10 56.64 5.17 Z"
     id="path4102"
     fill="#3bc7ff" />
  <path
     d="M 85.77 11.61 C 106.31 14.84 126.50 20.85 145.36 29.64 C 157.28 35.23 169.14 42.21 178.91 51.10 C 184.91 56.63 191.03 63.85 192.71 72.04 C 194.14 78.30 191.70 85.07 186.65 89.01 C 185.09 88.80 183.54 88.27 182.04 87.81 C 184.84 84.06 187.72 80.98 188.02 76.04 C 188.74 67.58 182.88 59.50 177.23 53.77 C 168.73 45.14 157.80 38.43 147.05 32.95 C 131.00 24.96 113.74 19.30 96.21 15.63 C 80.54 12.45 63.93 10.77 47.98 12.43 C 40.41 13.26 32.32 14.92 25.55 18.54 C 20.89 21.04 16.52 24.81 14.83 29.98 C 13.03 35.31 14.62 40.97 17.27 45.72 C 21.17 52.63 27.43 58.51 33.68 63.29 C 46.86 73.25 62.40 80.62 77.95 86.02 C 81.98 87.52 85.75 87.95 88.99 90.97 C 85.87 90.75 82.96 90.06 80.02 89.02 C 63.43 83.37 46.64 75.93 32.37 65.66 C 25.42 60.63 18.39 54.55 13.71 47.30 C 10.43 42.12 8.27 36.42 9.45 30.21 C 10.68 24.31 15.03 20.01 20.08 17.08 C 26.93 13.17 35.21 11.27 42.98 10.28 C 57.08 8.54 71.76 9.46 85.77 11.61 Z"
     id="path4104"
     fill="#4e5a62" />
  <path
     d="M 68.01 13.88 C 85.98 14.62 103.97 18.37 121.01 24.05 C 124.68 25.30 128.19 26.10 131.01 28.97 C 125.19 28.34 120.53 25.91 114.78 24.26 C 96.20 18.67 76.01 15.11 56.58 16.46 C 48.14 17.15 38.67 18.81 31.38 23.37 C 26.87 26.19 23.33 30.46 23.08 35.96 C 22.72 41.83 25.73 47.25 29.29 51.68 C 35.87 59.71 44.94 66.03 53.93 71.08 C 69.48 79.82 86.86 85.73 104.24 89.52 C 119.07 92.64 134.86 94.29 149.96 92.53 C 157.49 91.59 165.88 89.63 172.14 85.16 C 175.41 82.92 177.21 79.75 179.09 76.38 C 180.69 76.89 182.29 77.41 183.88 77.93 C 182.03 81.65 179.90 85.02 176.35 87.34 C 168.36 92.87 157.30 94.67 147.79 95.38 C 131.43 96.43 114.65 94.21 98.74 90.43 C 81.92 86.32 65.39 80.23 50.26 71.76 C 40.77 66.31 31.01 59.47 24.19 50.82 C 20.31 45.81 16.83 38.99 18.32 32.49 C 20.02 25.35 26.10 21.14 32.52 18.51 C 43.47 14.17 56.36 13.49 68.01 13.88 Z"
     id="path4106"
     fill="#3bc7ff" />
  <path
     d="M 61.13 35.31 C 75.06 34.80 89.05 35.25 103.00 35.07 C 106.45 35.13 110.42 34.66 113.66 35.89 C 112.94 38.32 110.99 37.32 109.02 37.62 C 94.35 37.51 79.64 37.64 64.98 37.56 C 62.62 37.55 62.52 37.09 61.13 35.31 Z"
     id="path4108"
     fill="#4e5a62" />
  <path
     d="M 63.87 45.02 C 84.91 44.65 105.98 44.98 127.03 44.84 C 129.60 44.79 130.17 45.17 131.93 46.99 C 111.64 47.53 91.30 47.02 71.00 47.26 C 68.06 47.04 65.67 48.00 63.87 45.02 Z"
     id="path4110"
     fill="#4e5a62" />
  <path
     d="M 84.52 54.82 C 97.65 54.20 110.85 54.76 124.00 54.51 C 126.99 54.82 129.89 53.55 131.52 56.76 C 124.36 57.19 117.17 56.88 110.00 56.97 C 102.13 56.88 94.24 57.16 86.39 56.85 C 85.75 56.18 85.13 55.51 84.52 54.82 Z"
     id="path4112"
     fill="#4e5a62" />
  <path
     d="M 9.92 59.87 C 11.31 61.28 12.69 62.70 14.06 64.12 C 14.03 67.94 14.26 71.61 15.89 75.12 C 19.37 83.02 26.27 89.75 33.01 94.97 C 46.09 105.02 61.57 112.45 77.08 117.92 C 81.41 119.55 85.52 120.03 89.07 123.12 C 83.58 122.89 79.07 120.84 73.95 119.07 C 57.92 113.17 41.71 105.37 28.25 94.75 C 21.67 89.52 15.18 83.17 11.49 75.51 C 9.57 71.57 8.78 67.52 9.33 63.14 C 9.52 62.05 9.71 60.96 9.92 59.87 Z"
     id="path4114"
     fill="#4e5a62" />
  <path
     d="M 89.39 64.40 C 92.20 63.94 95.16 64.18 98.00 64.15 C 110.67 64.19 123.33 64.16 136.00 64.16 C 139.61 64.20 143.30 63.92 146.88 64.36 C 147.58 64.99 148.25 65.64 148.91 66.32 C 135.63 66.86 122.29 66.42 109.00 66.56 C 102.05 66.39 94.93 67.03 88.03 66.10 L 89.39 64.40 Z"
     id="path4120"
     fill="#4e5a62" />
  <path
     d="M 17.72 67.42 C 19.70 69.06 22.50 70.76 23.44 73.24 C 24.96 76.75 26.30 80.21 28.76 83.21 C 34.84 90.98 43.44 97.16 51.90 102.11 C 67.74 111.38 85.66 117.61 103.53 121.56 C 118.29 124.73 133.97 126.44 149.03 124.83 C 156.91 123.95 165.71 121.95 172.26 117.27 C 175.48 115.07 177.20 111.95 179.05 108.63 C 180.64 109.08 182.24 109.53 183.83 110.00 C 182.34 113.07 180.86 115.96 178.15 118.15 C 172.17 123.19 163.61 125.50 156.02 126.68 C 141.83 128.80 126.91 127.80 112.79 125.49 C 92.63 122.08 72.85 115.71 54.66 106.34 C 44.46 100.94 34.12 94.25 26.36 85.62 C 21.64 80.41 18.39 74.52 17.72 67.42 Z"
     id="path4122"
     fill="#3bc7ff" />
  <path
     d="M 102.18 74.12 C 117.09 73.56 132.07 74.08 147.00 73.84 C 150.23 74.10 153.08 72.91 155.22 76.02 C 140.16 76.52 125.07 76.05 110.00 76.27 C 106.85 76.06 104.29 77.09 102.18 74.12 Z"
     id="path4128"
     fill="#4e5a62" />
  <path
     d="M 3.89 76.11 C 5.80 76.41 7.69 76.24 8.94 77.97 C 11.90 81.73 14.51 85.66 18.06 88.93 C 30.17 100.61 45.78 109.24 61.12 115.88 C 86.60 126.63 114.30 133.46 142.00 134.15 C 154.78 134.40 168.66 133.50 180.63 128.64 C 187.26 125.89 193.90 121.37 196.26 114.25 C 197.97 109.06 196.73 104.34 195.10 99.36 C 196.07 98.36 197.04 97.36 198.01 96.36 C 200.15 100.82 202.18 104.92 202.12 110.00 C 202.19 115.87 199.25 121.12 194.83 124.83 C 188.71 130.02 180.28 132.81 172.53 134.44 C 158.79 137.26 143.99 137.07 130.07 135.80 C 97.81 132.29 65.67 122.71 37.44 106.56 C 28.28 101.17 19.23 94.82 11.88 87.11 C 8.73 83.77 5.76 80.35 3.89 76.11 Z"
     id="path4130"
     fill="#3bc7ff" />
  <path
     d="M 9.87 92.03 C 11.27 93.43 12.67 94.85 14.05 96.27 C 14.07 100.05 14.21 103.68 15.83 107.17 C 19.27 115.10 26.19 121.86 32.93 127.11 C 45.79 136.99 60.95 144.34 76.18 149.80 C 80.81 151.55 85.14 152.20 89.10 155.13 C 83.77 155.21 79.45 153.17 74.54 151.47 C 58.24 145.53 41.78 137.66 28.13 126.85 C 21.39 121.50 14.65 114.83 11.10 106.87 C 8.82 102.09 8.83 97.13 9.87 92.03 Z"
     id="path4150"
     fill="#4e5a62" />
  <path
     d="M 17.79 99.65 C 19.79 101.31 22.49 103.00 23.47 105.49 C 24.97 108.95 26.28 112.36 28.69 115.32 C 34.60 122.89 42.91 128.98 51.12 133.85 C 65.74 142.50 81.93 148.50 98.39 152.56 C 113.80 156.32 130.21 158.49 146.07 157.31 C 154.91 156.56 165.07 154.67 172.40 149.36 C 175.56 147.15 177.25 144.06 179.09 140.77 C 180.65 141.21 182.21 141.66 183.76 142.12 C 182.45 144.98 181.21 147.68 178.79 149.79 C 173.54 154.54 166.11 156.96 159.28 158.31 C 150.65 159.91 141.77 160.42 133.00 159.90 C 111.31 158.77 89.69 153.56 69.57 145.42 C 56.19 139.96 42.71 132.78 31.78 123.22 C 25.80 117.86 19.72 110.91 18.21 102.77 C 18.06 101.73 17.92 100.69 17.79 99.65 Z"
     id="path4152"
     fill="#3bc7ff" />
  <path
     d="M 192.19 101.69 C 192.93 105.16 193.54 108.44 192.62 111.96 C 191.71 115.82 189.36 118.45 186.91 121.41 C 185.27 120.93 183.63 120.43 182.01 119.90 C 183.86 117.52 186.08 115.05 187.15 112.21 C 188.12 109.71 187.98 106.63 188.06 103.98 C 189.43 103.20 190.80 102.42 192.19 101.69 Z"
     id="path4154"
     fill="#4e5a62" />
  <path
     d="M 3.90 108.32 C 5.69 108.60 7.69 108.40 8.86 110.05 C 11.96 114.01 14.69 118.14 18.47 121.54 C 31.27 133.63 47.62 142.49 63.79 149.20 C 89.42 159.65 117.27 166.13 145.00 166.45 C 157.03 166.39 170.32 165.29 181.48 160.46 C 187.83 157.68 194.12 153.16 196.31 146.28 C 197.94 141.16 196.72 136.52 195.11 131.61 C 196.08 130.59 197.04 129.57 198.00 128.55 C 200.12 132.95 202.13 136.98 202.12 142.00 C 202.26 148.16 199.09 153.58 194.40 157.38 C 187.94 162.66 179.03 165.38 170.95 166.94 C 159.77 168.92 148.29 169.46 136.97 168.52 C 121.82 167.58 106.71 164.82 92.05 160.92 C 73.30 155.91 54.81 148.72 37.96 139.06 C 29.15 133.91 20.52 127.94 13.25 120.75 C 9.72 117.13 5.94 112.99 3.90 108.32 Z"
     id="path4156"
     fill="#3bc7ff" />
  <path
     d="M 192.19 133.90 C 194.24 140.98 192.77 148.42 186.90 153.16 C 185.26 153.35 183.51 152.57 181.93 152.17 C 183.85 149.71 186.16 147.19 187.22 144.23 C 188.12 141.75 187.99 138.73 188.07 136.12 C 189.44 135.37 190.80 134.61 192.19 133.90 Z"
     id="path4158"
     fill="#4e5a62" />
  <g
     aria-label="Datadocs"
     transform="scale(0.98284445,1.017455)"
     style="font-style:normal;font-variant:normal;font-weight:normal;font-stretch:normal;font-size:70.58953857px;line-height:1.25;font-family:'Nexa Regular';-inkscape-font-specification:'Nexa Regular, ';letter-spacing:0px;word-spacing:0px;fill:#4e5a62;fill-opacity:1;stroke:none;stroke-width:0.73530775"
     id="text4178">
    <path
       d="M 248.15869,125.54905 V 62.393016 h 22.28519 q 6.2099,0 11.45088,1.717632 5.28503,1.717633 8.9405,4.71248 3.65548,2.950805 6.2099,6.914573 2.59847,3.963767 3.7876,8.411996 1.23318,4.448228 1.23318,9.204749 0,4.888647 -1.14509,9.469004 -1.14509,4.58035 -3.65548,8.76433 -2.51038,4.13993 -6.12182,7.22286 -3.61143,3.08293 -8.94049,4.93269 -5.32907,1.80572 -11.75918,1.80572 z m 6.29799,-5.85757 h 15.9872 q 5.10885,0 9.38092,-1.49742 4.27206,-1.54147 7.17882,-4.0959 2.9508,-2.59847 4.97673,-6.03373 2.02593,-3.43527 2.90676,-7.17882 0.8368,-3.391228 0.79276,-6.914578 0,-0.352334 0,-0.704669 -0.0881,-4.756522 -1.71764,-9.072624 -1.5855,-4.360145 -4.58035,-7.927536 -2.99485,-3.611433 -7.88349,-5.725442 -4.88865,-2.158052 -11.05451,-2.158052 h -15.9872 z"
       style="font-style:normal;font-variant:normal;font-weight:normal;font-stretch:normal;font-family:'Nexa Book';-inkscape-font-specification:'Nexa Book, '"
       id="path901" />
    <path
       d="m 311.00644,103.26387 q 0,-6.826493 3.08293,-12.111517 3.08293,-5.285024 8.23583,-8.015619 5.15289,-2.774638 11.49492,-2.774638 5.41715,0 10.26176,2.466345 4.8446,2.466344 7.2669,7.002656 v -8.852415 h 5.6814 v 44.570368 h -5.59331 v -8.85242 q -2.77464,4.75653 -7.61924,7.26691 -4.80057,2.46635 -10.08559,2.46635 -9.68921,0 -16.20741,-6.38607 -6.51819,-6.38607 -6.51819,-16.77995 z m 6.03373,0 q 0,7.75136 4.88865,12.64001 4.88865,4.84461 12.06747,4.84461 4.13993,0 7.48712,-1.49743 3.39122,-1.49742 5.46119,-3.91972 2.06997,-2.46635 3.17101,-5.59332 1.14509,-3.17101 1.14509,-6.43011 0,-3.2591 -1.14509,-6.386073 -1.10104,-3.171014 -3.17101,-5.593316 -2.06997,-2.466345 -5.46119,-3.963768 -3.34719,-1.497424 -7.48712,-1.497424 -7.17882,0 -12.06747,4.844605 -4.88865,4.844606 -4.88865,12.551936 z"
       style="font-style:normal;font-variant:normal;font-weight:normal;font-stretch:normal;font-family:'Nexa Book';-inkscape-font-specification:'Nexa Book, '"
       id="path903" />
    <path
       d="m 367.29194,86.219664 v -5.152898 h 9.11667 V 68.470793 l 6.03373,-0.660628 v 13.256601 h 14.40169 v 5.152898 h -14.40169 v 25.147906 q 0,4.58035 1.62955,6.95861 1.67359,2.33422 5.94565,2.33422 2.81868,0 6.47416,-1.71763 l 1.8938,5.06481 q -4.58036,2.15806 -8.54413,2.15806 -0.13212,0 -0.2202,0 -13.21256,0 -13.21256,-14.79807 V 86.219664 Z"
       style="font-style:normal;font-variant:normal;font-weight:normal;font-stretch:normal;font-family:'Nexa Book';-inkscape-font-specification:'Nexa Book, '"
       id="path905" />
    <path
       d="m 403.67053,103.26387 q 0,-6.826493 3.08293,-12.111517 3.08293,-5.285024 8.23583,-8.015619 5.1529,-2.774638 11.49492,-2.774638 5.41715,0 10.26176,2.466345 4.8446,2.466344 7.26691,7.002656 v -8.852415 h 5.6814 v 44.570368 h -5.59332 v -8.85242 q -2.77464,4.75653 -7.61924,7.26691 -4.80056,2.46635 -10.08559,2.46635 -9.68921,0 -16.2074,-6.38607 -6.5182,-6.38607 -6.5182,-16.77995 z m 6.03373,0 q 0,7.75136 4.88865,12.64001 4.88865,4.84461 12.06747,4.84461 4.13994,0 7.48712,-1.49743 3.39122,-1.49742 5.46119,-3.91972 2.06997,-2.46635 3.17101,-5.59332 1.14509,-3.17101 1.14509,-6.43011 0,-3.2591 -1.14509,-6.386073 -1.10104,-3.171014 -3.17101,-5.593316 -2.06997,-2.466345 -5.46119,-3.963768 -3.34718,-1.497424 -7.48712,-1.497424 -7.17882,0 -12.06747,4.844605 -4.88865,4.844606 -4.88865,12.551936 z"
       style="font-style:normal;font-variant:normal;font-weight:normal;font-stretch:normal;font-family:'Nexa Book';-inkscape-font-specification:'Nexa Book, '"
       id="path907" />
    <path
       d="m 507.29575,62.410632 h -7.30601 v 26.698531 c -3.15693,-6.043249 -10.37274,-8.929576 -16.68659,-8.929576 -12.62768,0 -22.45923,8.117796 -22.45923,23.090623 0,14.70223 9.83155,23.09062 22.54943,23.09062 6.58444,0 13.07867,-2.88633 16.68658,-9.01977 l 0.36079,8.11779 h 6.94523 V 62.320435 Z m -23.45141,24.623983 c 8.83938,0 15.8748,6.494237 15.8748,16.055195 0,9.74136 -6.94522,16.2356 -15.7846,16.2356 -8.65898,0 -15.69441,-5.86286 -15.69441,-16.1454 0,-10.462937 7.03543,-16.145395 15.69441,-16.145395 z"
       style="font-style:normal;font-variant:normal;font-weight:normal;font-stretch:normal;font-size:90.19773865px;line-height:1.25;font-family:'Nexa Regular';-inkscape-font-specification:'Nexa Regular, ';fill:#3bc7ff;fill-opacity:1;stroke-width:0.73530775"
       id="path909" />
    <path
       d="m 518.09409,103.36041 c 0,13.52966 9.74136,23.00042 23.09063,23.00042 13.43946,0 23.18081,-9.47076 23.18081,-23.00042 0,-13.800258 -9.56096,-23.361219 -23.18081,-23.361219 -13.25907,0 -23.09063,9.560961 -23.09063,23.361219 z m 38.96543,0 c -0.0902,9.38056 -6.67464,16.05519 -15.8748,16.05519 -9.10998,0 -15.69441,-6.67463 -15.69441,-16.05519 0,-9.921756 6.67463,-16.596388 15.7846,-16.596388 8.92958,0 15.78461,6.674632 15.78461,16.596388 z"
       style="font-style:normal;font-variant:normal;font-weight:normal;font-stretch:normal;font-size:90.19773865px;line-height:1.25;font-family:'Nexa Regular';-inkscape-font-specification:'Nexa Regular, ';fill:#3bc7ff;fill-opacity:1;stroke-width:0.73530775"
       id="path911" />
    <path
       d="m 612.22533,119.596 -4.96088,-4.96088 c -3.15692,3.24712 -7.39621,4.69029 -11.63551,4.69029 -8.65898,0 -15.8748,-5.68246 -15.8748,-16.0552 0,-10.011951 7.12562,-16.0552 15.965,-16.0552 3.9687,0 8.1178,1.443164 11.27472,4.509887 l 4.69028,-4.870678 c -4.69028,-4.600084 -10.10215,-6.674632 -16.1454,-6.674632 -12.89827,0 -23.27101,8.207994 -23.27101,23.090623 0,14.88262 10.55313,23.09062 23.27101,23.09062 6.13345,0 11.81591,-2.07455 16.59639,-6.85503 z"
       style="font-style:normal;font-variant:normal;font-weight:normal;font-stretch:normal;font-size:90.19773865px;line-height:1.25;font-family:'Nexa Regular';-inkscape-font-specification:'Nexa Regular, ';fill:#3bc7ff;fill-opacity:1;stroke-width:0.73530775"
       id="path913" />
    <path
       d="m 650.25492,90.82292 4.23929,-4.870678 c -4.78048,-4.329491 -10.28254,-5.953051 -16.95717,-5.953051 -8.56879,-0.0902 -18.12975,3.60791 -18.03955,13.078672 0,9.470767 9.20017,11.725707 17.76895,12.808077 6.85503,0.81178 12.0865,2.25495 11.9963,7.12562 -0.18039,5.41187 -6.40404,6.94523 -11.27472,6.94523 -5.50206,0 -11.9061,-1.98435 -15.8748,-6.85503 l -4.23929,5.14127 c 5.05107,6.31384 12.44729,8.38839 19.9337,8.38839 10.01195,0 18.49053,-4.41969 18.67093,-13.34926 0.1804,-11.00413 -10.64333,-12.62769 -18.76113,-13.619862 -5.59226,-0.631384 -11.00412,-1.98435 -11.09432,-6.584435 -0.0902,-4.419689 4.87068,-6.584434 11.00412,-6.494237 4.60009,0 8.65899,0.81178 12.53749,4.329492 z"
       style="font-style:normal;font-variant:normal;font-weight:normal;font-stretch:normal;font-size:90.19773865px;line-height:1.25;font-family:'Nexa Regular';-inkscape-font-specification:'Nexa Regular, ';fill:#3bc7ff;fill-opacity:1;stroke-width:0.73530775"
       id="path915" />
  </g>
</svg>
