<?xml version="1.0" encoding="UTF-8" standalone="no"?>
<svg
   xmlns:dc="http://purl.org/dc/elements/1.1/"
   xmlns:cc="http://creativecommons.org/ns#"
   xmlns:rdf="http://www.w3.org/1999/02/22-rdf-syntax-ns#"
   xmlns:svg="http://www.w3.org/2000/svg"
   xmlns="http://www.w3.org/2000/svg"
   xmlns:sodipodi="http://sodipodi.sourceforge.net/DTD/sodipodi-0.dtd"
   xmlns:inkscape="http://www.inkscape.org/namespaces/inkscape"
   viewBox="0 0 205 173"
   height="173pt"
   width="205pt"
   version="1.1"
   id="svg4160"
   sodipodi:docname="datadocs-logo-cutted.svg"
   inkscape:version="0.92.2 (unknown)">
  <metadata
     id="metadata4166">
    <rdf:RDF>
      <cc:Work
         rdf:about="">
        <dc:format>image/svg+xml</dc:format>
        <dc:type
           rdf:resource="http://purl.org/dc/dcmitype/StillImage" />
        <dc:title></dc:title>
      </cc:Work>
    </rdf:RDF>
  </metadata>
  <defs
     id="defs4164" />
  <sodipodi:namedview
     pagecolor="#ffffff"
     bordercolor="#666666"
     borderopacity="1"
     objecttolerance="10"
     gridtolerance="10"
     guidetolerance="10"
     inkscape:pageopacity="0"
     inkscape:pageshadow="2"
     inkscape:window-width="1600"
     inkscape:window-height="1136"
     id="namedview4162"
     showgrid="false"
     inkscape:zoom="1.41"
     inkscape:cx="440.20922"
     inkscape:cy="115.33333"
     inkscape:window-x="0"
     inkscape:window-y="27"
     inkscape:window-maximized="1"
     inkscape:current-layer="svg4160" />
  <path
     d="m 56.64,5.17 c 6.28,-0.49 12.83,0.44 19.11,1.04 22.45,2.72 44.84,8.6 65.71,17.33 15.35,6.5 30.69,14.72 43.35,25.66 6.14,5.37 12.19,12.04 15.39,19.62 2.35,5.57 2.79,11.82 -0.08,17.29 -3.3,6.37 -9.81,10.25 -16.27,12.83 -11.66,4.5 -24.46,5.6 -36.85,5.5 -15.66,0.03 -31.54,-2.32 -46.77,-5.87 C 82.5,94.41 64.96,88.47 48.65,80.35 37.68,74.95 26.87,68.39 17.59,60.38 12.06,55.44 7.05,50.4 3.68,43.69 c 2.71,0.62 4.74,0.74 6.27,3.33 6.13,9 14.26,15.76 23.25,21.77 13.46,8.96 28.06,15.5 43.29,20.82 18.86,6.51 38.61,10.73 58.51,12.11 12.21,0.62 24.29,0.49 36.24,-2.31 6.61,-1.59 13.47,-4.06 18.75,-8.46 3.91,-3.27 6.72,-7.74 7.04,-12.92 0.51,-7.04 -2.95,-13.56 -7.14,-18.96 C 183.69,51.29 175.75,44.95 167.41,39.59 152.01,29.63 134.5,22.35 117,16.98 101.1,12.2 84.6,8.85 68,7.82 63.79,7.41 60.11,8.1 56.64,5.17 Z"
     id="path4102"
     inkscape:connector-curvature="0"
     style="fill:#3bc7ff" />
  <path
     d="m 85.77,11.61 c 20.54,3.23 40.73,9.24 59.59,18.03 11.92,5.59 23.78,12.57 33.55,21.46 6,5.53 12.12,12.75 13.8,20.94 1.43,6.26 -1.01,13.03 -6.06,16.97 -1.56,-0.21 -3.11,-0.74 -4.61,-1.2 2.8,-3.75 5.68,-6.83 5.98,-11.77 C 188.74,67.58 182.88,59.5 177.23,53.77 168.73,45.14 157.8,38.43 147.05,32.95 131,24.96 113.74,19.3 96.21,15.63 80.54,12.45 63.93,10.77 47.98,12.43 c -7.57,0.83 -15.66,2.49 -22.43,6.11 -4.66,2.5 -9.03,6.27 -10.72,11.44 -1.8,5.33 -0.21,10.99 2.44,15.74 3.9,6.91 10.16,12.79 16.41,17.57 13.18,9.96 28.72,17.33 44.27,22.73 4.03,1.5 7.8,1.93 11.04,4.95 C 85.87,90.75 82.96,90.06 80.02,89.02 63.43,83.37 46.64,75.93 32.37,65.66 25.42,60.63 18.39,54.55 13.71,47.3 10.43,42.12 8.27,36.42 9.45,30.21 c 1.23,-5.9 5.58,-10.2 10.63,-13.13 6.85,-3.91 15.13,-5.81 22.9,-6.8 14.1,-1.74 28.78,-0.82 42.79,1.33 z"
     id="path4104"
     inkscape:connector-curvature="0"
     style="fill:#4e5a62" />
  <path
     d="m 68.01,13.88 c 17.97,0.74 35.96,4.49 53,10.17 3.67,1.25 7.18,2.05 10,4.92 -5.82,-0.63 -10.48,-3.06 -16.23,-4.71 -18.58,-5.59 -38.77,-9.15 -58.2,-7.8 -8.44,0.69 -17.91,2.35 -25.2,6.91 -4.51,2.82 -8.05,7.09 -8.3,12.59 -0.36,5.87 2.65,11.29 6.21,15.72 6.58,8.03 15.65,14.35 24.64,19.4 15.55,8.74 32.93,14.65 50.31,18.44 14.83,3.12 30.62,4.77 45.72,3.01 7.53,-0.94 15.92,-2.9 22.18,-7.37 3.27,-2.24 5.07,-5.41 6.95,-8.78 1.6,0.51 3.2,1.03 4.79,1.55 -1.85,3.72 -3.98,7.09 -7.53,9.41 -7.99,5.53 -19.05,7.33 -28.56,8.04 C 131.43,96.43 114.65,94.21 98.74,90.43 81.92,86.32 65.39,80.23 50.26,71.76 40.77,66.31 31.01,59.47 24.19,50.82 20.31,45.81 16.83,38.99 18.32,32.49 20.02,25.35 26.1,21.14 32.52,18.51 43.47,14.17 56.36,13.49 68.01,13.88 Z"
     id="path4106"
     inkscape:connector-curvature="0"
     style="fill:#3bc7ff" />
  <path
     d="M 61.13,35.31 C 75.06,34.8 89.05,35.25 103,35.07 c 3.45,0.06 7.42,-0.41 10.66,0.82 -0.72,2.43 -2.67,1.43 -4.64,1.73 -14.67,-0.11 -29.38,0.02 -44.04,-0.06 -2.36,-0.01 -2.46,-0.47 -3.85,-2.25 z"
     id="path4108"
     inkscape:connector-curvature="0"
     style="fill:#4e5a62" />
  <path
     d="m 63.87,45.02 c 21.04,-0.37 42.11,-0.04 63.16,-0.18 2.57,-0.05 3.14,0.33 4.9,2.15 C 111.64,47.53 91.3,47.02 71,47.26 68.06,47.04 65.67,48 63.87,45.02 Z"
     id="path4110"
     inkscape:connector-curvature="0"
     style="fill:#4e5a62" />
  <path
     d="m 84.52,54.82 c 13.13,-0.62 26.33,-0.06 39.48,-0.31 2.99,0.31 5.89,-0.96 7.52,2.25 -7.16,0.43 -14.35,0.12 -21.52,0.21 -7.87,-0.09 -15.76,0.19 -23.61,-0.12 -0.64,-0.67 -1.26,-1.34 -1.87,-2.03 z"
     id="path4112"
     inkscape:connector-curvature="0"
     style="fill:#4e5a62" />
  <path
     d="m 9.92,59.87 c 1.39,1.41 2.77,2.83 4.14,4.25 -0.03,3.82 0.2,7.49 1.83,11 3.48,7.9 10.38,14.63 17.12,19.85 13.08,10.05 28.56,17.48 44.07,22.95 4.33,1.63 8.44,2.11 11.99,5.2 -5.49,-0.23 -10,-2.28 -15.12,-4.05 C 57.92,113.17 41.71,105.37 28.25,94.75 21.67,89.52 15.18,83.17 11.49,75.51 9.57,71.57 8.78,67.52 9.33,63.14 9.52,62.05 9.71,60.96 9.92,59.87 Z"
     id="path4114"
     inkscape:connector-curvature="0"
     style="fill:#4e5a62" />
  <path
     d="m 89.39,64.4 c 2.81,-0.46 5.77,-0.22 8.61,-0.25 12.67,0.04 25.33,0.01 38,0.01 3.61,0.04 7.3,-0.24 10.88,0.2 0.7,0.63 1.37,1.28 2.03,1.96 -13.28,0.54 -26.62,0.1 -39.91,0.24 -6.95,-0.17 -14.07,0.47 -20.97,-0.46 z"
     id="path4120"
     inkscape:connector-curvature="0"
     style="fill:#4e5a62" />
  <path
     d="m 17.72,67.42 c 1.98,1.64 4.78,3.34 5.72,5.82 1.52,3.51 2.86,6.97 5.32,9.97 6.08,7.77 14.68,13.95 23.14,18.9 15.84,9.27 33.76,15.5 51.63,19.45 14.76,3.17 30.44,4.88 45.5,3.27 7.88,-0.88 16.68,-2.88 23.23,-7.56 3.22,-2.2 4.94,-5.32 6.79,-8.64 1.59,0.45 3.19,0.9 4.78,1.37 -1.49,3.07 -2.97,5.96 -5.68,8.15 -5.98,5.04 -14.54,7.35 -22.13,8.53 -14.19,2.12 -29.11,1.12 -43.23,-1.19 -20.16,-3.41 -39.94,-9.78 -58.13,-19.15 -10.2,-5.4 -20.54,-12.09 -28.3,-20.72 -4.72,-5.21 -7.97,-11.1 -8.64,-18.2 z"
     id="path4122"
     inkscape:connector-curvature="0"
     style="fill:#3bc7ff" />
  <path
     d="m 102.18,74.12 c 14.91,-0.56 29.89,-0.04 44.82,-0.28 3.23,0.26 6.08,-0.93 8.22,2.18 -15.06,0.5 -30.15,0.03 -45.22,0.25 -3.15,-0.21 -5.71,0.82 -7.82,-2.15 z"
     id="path4128"
     inkscape:connector-curvature="0"
     style="fill:#4e5a62" />
  <path
     d="m 3.89,76.11 c 1.91,0.3 3.8,0.13 5.05,1.86 2.96,3.76 5.57,7.69 9.12,10.96 12.11,11.68 27.72,20.31 43.06,26.95 25.48,10.75 53.18,17.58 80.88,18.27 12.78,0.25 26.66,-0.65 38.63,-5.51 6.63,-2.75 13.27,-7.27 15.63,-14.39 1.71,-5.19 0.47,-9.91 -1.16,-14.89 0.97,-1 1.94,-2 2.91,-3 2.14,4.46 4.17,8.56 4.11,13.64 0.07,5.87 -2.87,11.12 -7.29,14.83 -6.12,5.19 -14.55,7.98 -22.3,9.61 -13.74,2.82 -28.54,2.63 -42.46,1.36 C 97.81,132.29 65.67,122.71 37.44,106.56 28.28,101.17 19.23,94.82 11.88,87.11 8.73,83.77 5.76,80.35 3.89,76.11 Z"
     id="path4130"
     inkscape:connector-curvature="0"
     style="fill:#3bc7ff" />
  <path
     d="m 9.87,92.03 c 1.4,1.4 2.8,2.82 4.18,4.24 0.02,3.78 0.16,7.41 1.78,10.9 3.44,7.93 10.36,14.69 17.1,19.94 12.86,9.88 28.02,17.23 43.25,22.69 4.63,1.75 8.96,2.4 12.92,5.33 -5.33,0.08 -9.65,-1.96 -14.56,-3.66 C 58.24,145.53 41.78,137.66 28.13,126.85 21.39,121.5 14.65,114.83 11.1,106.87 8.82,102.09 8.83,97.13 9.87,92.03 Z"
     id="path4150"
     inkscape:connector-curvature="0"
     style="fill:#4e5a62" />
  <path
     d="m 17.79,99.65 c 2,1.66 4.7,3.35 5.68,5.84 1.5,3.46 2.81,6.87 5.22,9.83 5.91,7.57 14.22,13.66 22.43,18.53 14.62,8.65 30.81,14.65 47.27,18.71 15.41,3.76 31.82,5.93 47.68,4.75 8.84,-0.75 19,-2.64 26.33,-7.95 3.16,-2.21 4.85,-5.3 6.69,-8.59 1.56,0.44 3.12,0.89 4.67,1.35 -1.31,2.86 -2.55,5.56 -4.97,7.67 -5.25,4.75 -12.68,7.17 -19.51,8.52 -8.63,1.6 -17.51,2.11 -26.28,1.59 -21.69,-1.13 -43.31,-6.34 -63.43,-14.48 -13.38,-5.46 -26.86,-12.64 -37.79,-22.2 -5.98,-5.36 -12.06,-12.31 -13.57,-20.45 -0.15,-1.04 -0.29,-2.08 -0.42,-3.12 z"
     id="path4152"
     inkscape:connector-curvature="0"
     style="fill:#3bc7ff" />
  <path
     d="m 192.19,101.69 c 0.74,3.47 1.35,6.75 0.43,10.27 -0.91,3.86 -3.26,6.49 -5.71,9.45 -1.64,-0.48 -3.28,-0.98 -4.9,-1.51 1.85,-2.38 4.07,-4.85 5.14,-7.69 0.97,-2.5 0.83,-5.58 0.91,-8.23 1.37,-0.78 2.74,-1.56 4.13,-2.29 z"
     id="path4154"
     inkscape:connector-curvature="0"
     style="fill:#4e5a62" />
  <path
     d="m 3.9,108.32 c 1.79,0.28 3.79,0.08 4.96,1.73 3.1,3.96 5.83,8.09 9.61,11.49 12.8,12.09 29.15,20.95 45.32,27.66 25.63,10.45 53.48,16.93 81.21,17.25 12.03,-0.06 25.32,-1.16 36.48,-5.99 6.35,-2.78 12.64,-7.3 14.83,-14.18 1.63,-5.12 0.41,-9.76 -1.2,-14.67 0.97,-1.02 1.93,-2.04 2.89,-3.06 2.12,4.4 4.13,8.43 4.12,13.45 0.14,6.16 -3.03,11.58 -7.72,15.38 -6.46,5.28 -15.37,8 -23.45,9.56 -11.18,1.98 -22.66,2.52 -33.98,1.58 -15.15,-0.94 -30.26,-3.7 -44.92,-7.6 C 73.3,155.91 54.81,148.72 37.96,139.06 29.15,133.91 20.52,127.94 13.25,120.75 9.72,117.13 5.94,112.99 3.9,108.32 Z"
     id="path4156"
     inkscape:connector-curvature="0"
     style="fill:#3bc7ff" />
  <path
     d="m 192.19,133.9 c 2.05,7.08 0.58,14.52 -5.29,19.26 -1.64,0.19 -3.39,-0.59 -4.97,-0.99 1.92,-2.46 4.23,-4.98 5.29,-7.94 0.9,-2.48 0.77,-5.5 0.85,-8.11 1.37,-0.75 2.73,-1.51 4.12,-2.22 z"
     id="path4158"
     inkscape:connector-curvature="0"
     style="fill:#4e5a62" />
</svg>
